<svg width="504" height="60" viewBox="0 0 504 60" fill="none" xmlns="http://www.w3.org/2000/svg">
<g filter="url(#filter0_d_356_187431)">
<path d="M194.448 19.5013L194.44 14.2881L184.82 8V12.0216L191.166 16.1996L191.17 19.402L188.223 21.3979L186.212 19.9307V17.4458L182.934 15.2041V19.7272L177.74 22.9147L177.73 31.3352L174.057 33.4031L172.171 31.926V29.4882L174.403 27.959V27.9392V24.1658L170.386 26.8543L167.316 24.856L164.51 26.693L168.894 29.6943V31.5363L165.735 33.6737L162.512 31.4916V24.2304L167.296 20.9907L167.301 17.8753L173.437 21.8273L178.595 18.3941L175.451 16.5595L173.393 17.9472L168.911 14.9832L173.966 12.0365L178.344 14.6034V10.7754L173.971 8.211L164.028 14.0076L164.021 19.2232L159.234 22.4653V33.2566L164.021 36.4987L164.028 41.7144L173.649 48V43.9809L167.303 39.8029L167.298 36.6005L170.246 34.6046L172.257 36.0717V38.5567L175.534 40.7984V36.2753L180.803 33.0878L180.862 24.6673L184.412 22.5994L186.298 24.0765V26.5142L184.065 28.0434V28.0633V31.8366L188.083 29.1481L191.153 31.1465L193.958 29.3095L189.575 26.3057V24.4662L192.734 22.3288L195.957 24.5109V31.7721L191.173 35.0117L191.168 38.1272L185.032 34.1727L179.874 37.5836L183.018 39.4156L185.076 38.0552L189.558 41.0193L184.503 43.966L180.124 41.3991V45.2246L184.498 47.789L194.44 41.9949L194.448 36.7792L199.234 33.5371V22.7434L194.448 19.5013Z" fill="#0084FF"/>
<path d="M215.234 38.7038V18.3402H223.726C225.25 18.3402 226.527 18.5556 227.554 18.9865C228.588 19.4174 229.364 20.0206 229.881 20.7962C230.404 21.5717 230.666 22.4699 230.666 23.4908C230.666 24.2663 230.504 24.959 230.179 25.5689C229.854 26.1721 229.407 26.6726 228.837 27.0703C228.267 27.468 227.607 27.7464 226.858 27.9055V28.1044C227.68 28.1442 228.439 28.3662 229.135 28.7706C229.838 29.175 230.401 29.7384 230.825 30.4609C231.25 31.1768 231.462 32.0253 231.462 33.0064C231.462 34.1001 231.183 35.0779 230.626 35.9396C230.07 36.7947 229.264 37.4709 228.21 37.968C227.156 38.4586 225.877 38.7038 224.372 38.7038H215.234ZM220.156 34.7365H223.199C224.266 34.7365 225.052 34.5343 225.555 34.13C226.066 33.7256 226.321 33.1622 226.321 32.4396C226.321 31.916 226.198 31.4652 225.953 31.0874C225.708 30.7029 225.36 30.4079 224.909 30.2024C224.458 29.9903 223.918 29.8842 223.288 29.8842H220.156V34.7365ZM220.156 26.7124H222.881C223.418 26.7124 223.895 26.6229 224.312 26.4439C224.73 26.2649 225.055 26.0064 225.287 25.6683C225.526 25.3303 225.645 24.9226 225.645 24.4453C225.645 23.7625 225.403 23.2256 224.919 22.8345C224.435 22.4434 223.782 22.2479 222.96 22.2479H220.156V26.7124Z" fill="#141718"/>
<path d="M232.708 38.7038V23.4311H237.431V26.2152H237.59C237.869 25.2076 238.323 24.4586 238.952 23.968C239.582 23.4709 240.315 23.2223 241.15 23.2223C241.375 23.2223 241.607 23.2389 241.846 23.272C242.085 23.2985 242.307 23.3416 242.512 23.4013V27.6271C242.28 27.5476 241.975 27.4846 241.597 27.4382C241.226 27.3918 240.895 27.3686 240.603 27.3686C240.026 27.3686 239.506 27.4979 239.042 27.7564C238.585 28.0083 238.223 28.3629 237.958 28.8203C237.7 29.2711 237.57 29.8014 237.57 30.4112V38.7038H232.708Z" fill="#141718"/>
<path d="M247.104 38.9624C246.13 38.9624 245.265 38.8 244.509 38.4751C243.76 38.1437 243.167 37.6465 242.729 36.9837C242.299 36.3142 242.083 35.4756 242.083 34.468C242.083 33.6196 242.232 32.9036 242.531 32.3203C242.829 31.737 243.24 31.263 243.764 30.8984C244.287 30.5339 244.89 30.2588 245.573 30.0732C246.256 29.8809 246.985 29.7517 247.761 29.6854C248.629 29.6058 249.328 29.523 249.859 29.4368C250.389 29.344 250.773 29.2147 251.012 29.049C251.257 28.8767 251.38 28.6347 251.38 28.3232V28.2734C251.38 27.763 251.204 27.3686 250.853 27.0902C250.502 26.8118 250.028 26.6726 249.431 26.6726C248.788 26.6726 248.271 26.8118 247.88 27.0902C247.489 27.3686 247.24 27.7531 247.134 28.2436L242.65 28.0845C242.782 27.1565 243.124 26.3279 243.674 25.5987C244.231 24.8629 244.993 24.2862 245.961 23.8686C246.935 23.4444 248.105 23.2322 249.471 23.2322C250.445 23.2322 251.344 23.3482 252.166 23.5803C252.988 23.8056 253.703 24.1371 254.313 24.5746C254.923 25.0054 255.394 25.5357 255.725 26.1655C256.063 26.7952 256.232 27.5144 256.232 28.3232V38.7038H251.658V36.576H251.539C251.267 37.093 250.919 37.5305 250.495 37.8885C250.077 38.2465 249.584 38.5149 249.014 38.6939C248.45 38.8729 247.814 38.9624 247.104 38.9624ZM248.606 35.7805C249.13 35.7805 249.6 35.6745 250.018 35.4624C250.442 35.2502 250.78 34.9586 251.032 34.5874C251.284 34.2095 251.41 33.772 251.41 33.2749V31.8232C251.271 31.8961 251.102 31.9624 250.903 32.022C250.711 32.0817 250.498 32.138 250.266 32.1911C250.034 32.2441 249.796 32.2905 249.55 32.3303C249.305 32.37 249.07 32.4065 248.845 32.4396C248.387 32.5125 247.996 32.6252 247.671 32.7777C247.353 32.9302 247.108 33.129 246.935 33.3743C246.77 33.6129 246.687 33.898 246.687 34.2294C246.687 34.7332 246.866 35.1177 247.224 35.3828C247.588 35.648 248.049 35.7805 248.606 35.7805Z" fill="#141718"/>
<path d="M258.085 38.7038V23.4311H262.948V38.7038H258.085ZM260.521 21.6513C259.839 21.6513 259.252 21.4259 258.761 20.9751C258.271 20.5178 258.026 19.9676 258.026 19.3246C258.026 18.6882 258.271 18.1447 258.761 17.6939C259.252 17.2365 259.839 17.0078 260.521 17.0078C261.211 17.0078 261.797 17.2365 262.281 17.6939C262.772 18.1447 263.017 18.6882 263.017 19.3246C263.017 19.9676 262.772 20.5178 262.281 20.9751C261.797 21.4259 261.211 21.6513 260.521 21.6513Z" fill="#141718"/>
<path d="M269.785 29.9936V38.7038H264.922V23.4311H269.546V26.2351H269.715C270.053 25.3004 270.63 24.5679 271.445 24.0376C272.26 23.5007 273.232 23.2322 274.358 23.2322C275.432 23.2322 276.364 23.4742 277.152 23.9581C277.948 24.4354 278.564 25.1049 279.002 25.9666C279.446 26.8217 279.665 27.8227 279.658 28.9695V38.7038H274.796V29.924C274.803 29.0755 274.587 28.4126 274.15 27.9354C273.719 27.4581 273.119 27.2195 272.35 27.2195C271.839 27.2195 271.389 27.3322 270.998 27.5575C270.613 27.7763 270.315 28.0911 270.103 28.5021C269.897 28.9131 269.791 29.4103 269.785 29.9936Z" fill="#141718"/>
<path d="M284.402 38.7038L280.425 23.4311H285.307L287.365 33.2152H287.494L289.702 23.4311H294.465L296.732 33.1456H296.861L298.86 23.4311H303.742L299.754 38.7038H294.554L292.168 29.8047H291.999L289.612 38.7038H284.402Z" fill="#141718"/>
<path d="M308.878 38.9624C307.904 38.9624 307.039 38.8 306.283 38.4751C305.534 38.1437 304.941 37.6465 304.503 36.9837C304.072 36.3142 303.857 35.4756 303.857 34.468C303.857 33.6196 304.006 32.9036 304.305 32.3203C304.603 31.737 305.014 31.263 305.537 30.8984C306.061 30.5339 306.664 30.2588 307.347 30.0732C308.03 29.8809 308.759 29.7517 309.535 29.6854C310.403 29.6058 311.102 29.523 311.633 29.4368C312.163 29.344 312.547 29.2147 312.786 29.049C313.031 28.8767 313.154 28.6347 313.154 28.3232V28.2734C313.154 27.763 312.978 27.3686 312.627 27.0902C312.276 26.8118 311.802 26.6726 311.205 26.6726C310.562 26.6726 310.045 26.8118 309.654 27.0902C309.263 27.3686 309.014 27.7531 308.908 28.2436L304.424 28.0845C304.556 27.1565 304.898 26.3279 305.448 25.5987C306.005 24.8629 306.767 24.2862 307.735 23.8686C308.709 23.4444 309.879 23.2322 311.245 23.2322C312.219 23.2322 313.117 23.3482 313.939 23.5803C314.761 23.8056 315.477 24.1371 316.087 24.5746C316.697 25.0054 317.168 25.5357 317.499 26.1655C317.837 26.7952 318.006 27.5144 318.006 28.3232V38.7038H313.432V36.576H313.313C313.041 37.093 312.693 37.5305 312.269 37.8885C311.851 38.2465 311.358 38.5149 310.787 38.6939C310.224 38.8729 309.588 38.9624 308.878 38.9624ZM310.38 35.7805C310.903 35.7805 311.374 35.6745 311.792 35.4624C312.216 35.2502 312.554 34.9586 312.806 34.5874C313.058 34.2095 313.184 33.772 313.184 33.2749V31.8232C313.045 31.8961 312.876 31.9624 312.677 32.022C312.484 32.0817 312.272 32.138 312.04 32.1911C311.808 32.2441 311.57 32.2905 311.324 32.3303C311.079 32.37 310.844 32.4065 310.618 32.4396C310.161 32.5125 309.77 32.6252 309.445 32.7777C309.127 32.9302 308.882 33.129 308.709 33.3743C308.544 33.6129 308.461 33.898 308.461 34.2294C308.461 34.7332 308.64 35.1177 308.998 35.3828C309.362 35.648 309.823 35.7805 310.38 35.7805Z" fill="#141718"/>
<path d="M334.128 23.4311L328.888 38.7038H323.319L318.089 23.4311H323.21L326.024 33.951H326.183L329.007 23.4311H334.128Z" fill="#141718"/>
<path d="M341.519 38.9922C339.922 38.9922 338.543 38.6773 337.383 38.0476C336.229 37.4112 335.341 36.5064 334.718 35.3331C334.101 34.1532 333.793 32.7512 333.793 31.1271C333.793 29.5495 334.105 28.1707 334.728 26.9908C335.351 25.8042 336.229 24.8828 337.363 24.2266C338.496 23.5637 339.832 23.2322 341.37 23.2322C342.457 23.2322 343.451 23.4013 344.353 23.7393C345.254 24.0774 346.033 24.5779 346.689 25.2408C347.346 25.9036 347.856 26.7223 348.221 27.6967C348.585 28.6645 348.768 29.7749 348.768 31.0277V32.2408H335.493V29.4169H344.243C344.237 28.8999 344.114 28.4392 343.876 28.0348C343.637 27.6304 343.309 27.3156 342.891 27.0902C342.48 26.8582 342.006 26.7422 341.469 26.7422C340.926 26.7422 340.439 26.8648 340.008 27.1101C339.577 27.3487 339.235 27.6768 338.984 28.0945C338.732 28.5054 338.599 28.9728 338.586 29.4965V32.37C338.586 32.9931 338.708 33.54 338.954 34.0107C339.199 34.4747 339.547 34.8359 339.998 35.0945C340.449 35.353 340.985 35.4822 341.609 35.4822C342.039 35.4822 342.431 35.4226 342.782 35.3033C343.133 35.184 343.435 35.0083 343.687 34.7763C343.939 34.5443 344.127 34.2592 344.253 33.9212L348.718 34.0504C348.532 35.0514 348.125 35.9231 347.495 36.6655C346.872 37.4013 346.053 37.9747 345.039 38.3857C344.025 38.79 342.851 38.9922 341.519 38.9922Z" fill="#141718"/>
</g>
<defs>
<filter id="filter0_d_356_187431" x="151.234" y="4" width="201.535" height="56" filterUnits="userSpaceOnUse" color-interpolation-filters="sRGB">
<feFlood flood-opacity="0" result="BackgroundImageFix"/>
<feColorMatrix in="SourceAlpha" type="matrix" values="0 0 0 0 0 0 0 0 0 0 0 0 0 0 0 0 0 0 127 0" result="hardAlpha"/>
<feOffset dy="4"/>
<feGaussianBlur stdDeviation="2"/>
<feComposite in2="hardAlpha" operator="out"/>
<feColorMatrix type="matrix" values="0 0 0 0 0 0 0 0 0 0 0 0 0 0 0 0 0 0 0.25 0"/>
<feBlend mode="normal" in2="BackgroundImageFix" result="effect1_dropShadow_356_187431"/>
<feBlend mode="normal" in="SourceGraphic" in2="effect1_dropShadow_356_187431" result="shape"/>
</filter>
</defs>
</svg>
